M48
;GenerationSoftware,Autodesk,EAGLE,9.6.2*%
;CreationDate,2021-10-15T15:56:03Z*%
FMAT,2
ICI,OFF
METRIC,TZ,000.000
T4C0.813
T3C1.000
T2C1.118
T1C1.397
%
G90
M71
T1
X38240Y65880
X46550Y65880
X57790Y65880
X6680Y57430
X65090Y37830
X41370Y3580
X65090Y52720
X65090Y24530
X6680Y44980
X6680Y21530
X23900Y3180
X18090Y3180
X6680Y33580
X24120Y65830
X53090Y3180
X65090Y44980
T2
X35870Y33590
X35870Y23430
X26205Y23430
X57770Y49430
X57770Y59590
X26135Y33590
T3
X27980Y49810
X45760Y57430
X38140Y57430
X33060Y57430
X27980Y57430
X38140Y49810
X33060Y49810
X45760Y49810
T4
X40960Y18380
X40960Y15840
X15390Y10540
X17930Y10540
X30630Y10540
X30630Y18160
X20470Y10540
X25550Y10540
X15390Y18160
X17930Y18160
X20470Y18160
X23010Y18160
X25550Y18160
X28090Y18160
X35871Y39279
X37213Y41134
X38409Y39181
X56710Y34230
X55440Y36135
X54170Y34230
X28090Y10540
X23010Y10540
X30920Y45000
X41080Y45000
X50020Y45000
X60180Y45000
X40920Y23400
X51080Y23400
X61080Y28000
X50920Y28000
M30