G04 EAGLE Gerber RS-274X export*
G75*
%MOMM*%
%FSLAX34Y34*%
%LPD*%
%INTop Copper*%
%IPPOS*%
%AMOC8*
5,1,8,0,0,1.08239X$1,22.5*%
G01*
%ADD10P,2.749271X8X22.500000*%
%ADD11P,1.429621X8X292.500000*%
%ADD12C,1.676400*%
%ADD13C,1.320800*%
%ADD14C,1.800000*%
%ADD15P,1.429621X8X380.300000*%
%ADD16P,1.429621X8X22.500000*%
%ADD17P,1.429621X8X202.500000*%
%ADD18C,0.812800*%
%ADD19C,0.152400*%


D10*
X382400Y658800D03*
X465500Y658800D03*
X577900Y658800D03*
D11*
X409600Y183800D03*
X409600Y158400D03*
D12*
X358700Y335900D03*
X358700Y234300D03*
X261345Y335899D03*
X262055Y234301D03*
X577700Y494300D03*
X577700Y595900D03*
D10*
X650900Y527200D03*
X650900Y245300D03*
X66800Y449800D03*
X413700Y35800D03*
X66800Y215300D03*
D13*
X153900Y112004D02*
X153900Y98796D01*
X179300Y98796D02*
X179300Y112004D01*
X306300Y112004D02*
X306300Y98796D01*
X306300Y174996D02*
X306300Y188204D01*
X204700Y112004D02*
X204700Y98796D01*
X230100Y98796D02*
X230100Y112004D01*
X280900Y112004D02*
X280900Y98796D01*
X255500Y98796D02*
X255500Y112004D01*
X280900Y174996D02*
X280900Y188204D01*
X255500Y188204D02*
X255500Y174996D01*
X230100Y174996D02*
X230100Y188204D01*
X204700Y188204D02*
X204700Y174996D01*
X179300Y174996D02*
X179300Y188204D01*
X153900Y188204D02*
X153900Y174996D01*
D14*
X457600Y498100D03*
X457600Y574300D03*
X381400Y574300D03*
X330600Y574300D03*
X279800Y574300D03*
X381400Y498100D03*
X330600Y498100D03*
X279800Y498100D03*
D10*
X650900Y378300D03*
X530900Y31800D03*
X241200Y658300D03*
X66800Y335800D03*
X180900Y31800D03*
X239000Y31800D03*
D15*
X358709Y392788D03*
X372131Y411336D03*
X384091Y391812D03*
D16*
X567100Y342300D03*
X554400Y361350D03*
X541700Y342300D03*
D10*
X66800Y574300D03*
X650900Y449800D03*
D16*
X309200Y450000D03*
X410800Y450000D03*
X500200Y450000D03*
X601800Y450000D03*
X409200Y234000D03*
X510800Y234000D03*
D17*
X610800Y280000D03*
X509200Y280000D03*
D18*
X372131Y411336D02*
X410795Y450000D01*
X410800Y450000D01*
X500200Y450000D01*
X384091Y391812D02*
X384091Y361291D01*
X358700Y335900D01*
D19*
X509572Y279692D02*
X510540Y278892D01*
X509572Y279692D02*
X509200Y280000D01*
X553212Y323088D02*
X553212Y361188D01*
X553212Y323088D02*
X510540Y280416D01*
X553212Y361188D02*
X554400Y361350D01*
X510540Y280416D02*
X509200Y280000D01*
D18*
X554400Y324520D02*
X554400Y361350D01*
X554400Y324520D02*
X509572Y279692D01*
X510540Y234260D02*
X510800Y234000D01*
X510540Y234260D02*
X510540Y278892D01*
D19*
X542544Y461000D02*
X542544Y461772D01*
X573998Y493226D01*
X577700Y494300D01*
X507492Y496824D02*
X458724Y496824D01*
X507492Y496824D02*
X542544Y461772D01*
X458724Y496824D02*
X458379Y497215D01*
X457600Y498100D01*
D18*
X540700Y342300D02*
X541700Y342300D01*
X540700Y342300D02*
X522000Y361000D01*
X522000Y405456D01*
X542544Y426000D01*
X542544Y461000D01*
X506329Y497215D01*
X458379Y497215D01*
X542544Y461000D02*
X575844Y494300D01*
X577700Y494300D01*
D19*
X457200Y574548D02*
X382524Y574548D01*
X457200Y574548D02*
X457600Y574300D01*
X382524Y658368D02*
X382096Y658368D01*
X242316Y658368D01*
X241200Y658300D01*
X382096Y658368D02*
X382400Y658800D01*
X388620Y659892D02*
X464820Y659892D01*
X465500Y658800D01*
X388620Y659892D02*
X387891Y659239D01*
X382524Y658368D02*
X382524Y574548D01*
X381400Y574300D01*
X377524Y658368D02*
X382400Y658800D01*
X380988Y573012D02*
X377488Y569512D01*
X380988Y573012D02*
X381000Y573024D01*
X381400Y574300D01*
D18*
X386951Y658300D02*
X241200Y658300D01*
X386951Y658300D02*
X387891Y659239D01*
X382400Y658800D02*
X463200Y658800D01*
X465500Y658800D02*
X577900Y658800D01*
X358709Y386409D02*
X153900Y181600D01*
X358709Y386409D02*
X358709Y392788D01*
X359754Y393833D01*
X359754Y551778D01*
X377488Y569512D01*
X381400Y574300D02*
X457600Y574300D01*
X382400Y574424D02*
X382400Y658800D01*
X382400Y574424D02*
X380988Y573012D01*
X457600Y574300D02*
X479200Y595900D01*
X577700Y595900D01*
X642900Y253300D02*
X650900Y253300D01*
X650900Y245300D02*
X642900Y253300D01*
X650900Y245300D02*
X650900Y280416D01*
X650900Y342900D02*
X650900Y378300D01*
X650900Y253300D01*
X650900Y381100D02*
X650900Y449800D01*
X650900Y381100D02*
X651636Y380364D01*
X657000Y375000D01*
X650900Y449800D02*
X650900Y527200D01*
X650700Y450000D02*
X601800Y450000D01*
X650700Y450000D02*
X650900Y449800D01*
D19*
X650748Y379476D02*
X650900Y378300D01*
X650748Y379476D02*
X651636Y380364D01*
D18*
X650300Y342300D02*
X567100Y342300D01*
X650300Y342300D02*
X650900Y342900D01*
X650484Y280000D02*
X610800Y280000D01*
X650484Y280000D02*
X650900Y280416D01*
X176250Y128196D02*
X153900Y105846D01*
X153900Y105400D01*
X305300Y106400D02*
X305300Y106846D01*
X305300Y106400D02*
X306300Y105400D01*
X305300Y106846D02*
X283950Y128196D01*
X176250Y128196D01*
X306300Y105400D02*
X359300Y158400D01*
X409600Y158400D01*
X531000Y158400D01*
X564000Y158400D01*
X650900Y245300D01*
X530900Y158300D02*
X530900Y31800D01*
X530900Y158300D02*
X531000Y158400D01*
X153900Y105400D02*
X66800Y192500D01*
X66800Y215300D01*
X66800Y335800D02*
X261247Y335800D01*
X261345Y335899D01*
X309000Y449800D02*
X66800Y449800D01*
X309000Y449800D02*
X309200Y450000D01*
X279800Y574300D02*
X66800Y574300D01*
X262055Y234301D02*
X358699Y234301D01*
X358700Y234300D01*
X408900Y234300D01*
X409200Y234000D01*
X409200Y184200D01*
X409600Y183800D01*
X179300Y105400D02*
X179300Y33400D01*
X180900Y31800D01*
X204700Y66100D02*
X204700Y105400D01*
X204700Y66100D02*
X239000Y31800D01*
M02*
